<svg width="270" height="22" viewBox="0 0 270 22" fill="none" xmlns="http://www.w3.org/2000/svg">
<path d="M268.998 0.540508C269.342 0.900846 269.523 1.31032 269.523 1.80169C269.523 2.29306 269.342 2.71892 268.998 3.0465C268.654 3.37408 268.211 3.53787 267.703 3.53787C267.178 3.53787 266.735 3.37408 266.391 3.0465C266.047 2.71892 265.883 2.29306 265.883 1.80169C265.883 1.31032 266.063 0.900846 266.407 0.540508C266.752 0.180169 267.195 0 267.703 0C268.211 0 268.654 0.180169 268.998 0.540508ZM266.194 15.0032V6.66626C266.194 5.84731 266.867 5.17577 267.686 5.17577C268.506 5.17577 269.179 5.84731 269.179 6.66626V14.9868C269.179 15.8058 268.506 16.4773 267.686 16.4773C266.867 16.4937 266.194 15.8221 266.194 15.0032Z" fill="#B2B2B2"/>
<path d="M258.979 16.4944C258.012 16.4944 257.143 15.9212 256.782 15.0203L253.519 7.20753C253.109 6.22479 253.831 5.16016 254.88 5.16016C255.487 5.16016 256.028 5.52049 256.257 6.09376L258.979 12.8583L261.701 6.09376C261.93 5.53687 262.472 5.16016 263.078 5.16016C264.144 5.16016 264.849 6.24117 264.439 7.20753L261.176 15.0367C260.815 15.9212 259.946 16.4944 258.979 16.4944Z" fill="#B2B2B2"/>
<path d="M236.925 11.8898C237.728 12.6924 238.466 13.4295 239.204 14.1665C237.532 16.2139 235.449 17.4751 232.678 16.951C230.104 16.4596 228.415 14.8708 227.743 12.3157C227.038 9.61315 228.284 6.81234 230.694 5.4365C233.105 4.06066 236.121 4.421 238.105 6.3701C240.319 8.53213 242.483 10.7433 244.68 12.9217C245.812 14.0355 247.484 14.1665 248.698 13.2657C250.058 12.2502 250.304 10.2847 249.255 8.95799C248.189 7.63129 246.222 7.41836 244.943 8.53213C244.5 8.90885 244.139 9.38384 243.762 9.8097C242.942 8.99075 242.205 8.25369 241.467 7.51664C243.09 5.51839 245.14 4.15894 248.189 4.76496C250.731 5.25633 252.616 7.33647 253.043 9.94073C253.453 12.4959 252.108 15.1329 249.763 16.3613C247.369 17.6061 244.467 17.1803 242.516 15.2639C240.335 13.1019 238.171 10.9235 235.99 8.76144C235.056 7.82784 233.744 7.54939 232.596 8.07352C231.432 8.59765 230.793 9.51488 230.776 10.8088C230.76 12.0864 231.35 13.0527 232.514 13.5933C233.695 14.1338 234.81 13.97 235.794 13.1183C236.22 12.7252 236.564 12.2829 236.925 11.8898Z" fill="#B2B2B2"/>
<path d="M223.054 16.4941C222.152 16.4941 221.382 15.9045 221.152 15.0528L219.66 9.51667L218.152 15.0528C217.922 15.9045 217.151 16.4941 216.266 16.4941C215.397 16.4941 214.626 15.9209 214.38 15.0692L212.052 6.94516C211.806 6.07707 212.462 5.20898 213.364 5.20898C213.97 5.20898 214.512 5.61846 214.676 6.20811L216.364 12.3175L217.955 6.48655C218.168 5.73311 218.84 5.20898 219.627 5.20898C220.414 5.20898 221.103 5.73311 221.3 6.48655L222.89 12.3175L224.579 6.20811C224.743 5.61846 225.284 5.20898 225.891 5.20898H225.94C226.842 5.20898 227.498 6.07707 227.252 6.94516L224.94 15.0855C224.71 15.9209 223.94 16.4941 223.054 16.4941Z" fill="#B2B2B2"/>
<path d="M22.876 15.098C22.3907 15.098 22.148 14.8507 22.148 14.356V5.872C22.148 5.37733 22.3953 5.13 22.89 5.13H26.236C27.3 5.13 28.1213 5.396 28.7 5.928C29.2787 6.45067 29.568 7.188 29.568 8.14C29.568 9.10133 29.2787 9.848 28.7 10.38C28.1213 10.9027 27.3 11.164 26.236 11.164H23.604V14.356C23.604 14.8507 23.3613 15.098 22.876 15.098ZM23.604 10.002H26.026C27.4447 10.002 28.154 9.38133 28.154 8.14C28.154 6.908 27.4447 6.292 26.026 6.292H23.604V10.002ZM32.8186 15.126C32.3426 15.126 31.918 15.0327 31.5446 14.846C31.1713 14.6593 30.8726 14.4073 30.6486 14.09C30.434 13.7727 30.3266 13.4133 30.3266 13.012C30.3266 12.508 30.4526 12.1113 30.7046 11.822C30.966 11.5327 31.3906 11.3227 31.9786 11.192C32.576 11.0613 33.3786 10.996 34.3866 10.996H34.8626V10.632C34.8626 10.1 34.7506 9.71733 34.5266 9.484C34.3026 9.25067 33.934 9.134 33.4206 9.134C33.122 9.134 32.8093 9.17133 32.4826 9.246C32.1653 9.32067 31.834 9.44667 31.4886 9.624C31.2926 9.71733 31.1293 9.73133 30.9986 9.666C30.8773 9.60067 30.7933 9.498 30.7466 9.358C30.7 9.218 30.7046 9.07333 30.7606 8.924C30.8166 8.77467 30.9333 8.66267 31.1106 8.588C31.5213 8.40133 31.9273 8.266 32.3286 8.182C32.73 8.08867 33.108 8.042 33.4626 8.042C34.396 8.042 35.0866 8.266 35.5346 8.714C35.9826 9.15267 36.2066 9.84333 36.2066 10.786V14.384C36.2066 14.86 35.9873 15.098 35.5486 15.098C35.1006 15.098 34.8766 14.86 34.8766 14.384V13.866C34.7086 14.258 34.4473 14.566 34.0926 14.79C33.738 15.014 33.3133 15.126 32.8186 15.126ZM33.0986 14.118C33.6026 14.118 34.0226 13.9407 34.3586 13.586C34.6946 13.2313 34.8626 12.7833 34.8626 12.242V11.864H34.4006C33.7193 11.864 33.1826 11.8967 32.7906 11.962C32.408 12.0273 32.1326 12.1393 31.9646 12.298C31.806 12.4473 31.7266 12.6573 31.7266 12.928C31.7266 13.2827 31.848 13.572 32.0906 13.796C32.3333 14.0107 32.6693 14.118 33.0986 14.118ZM41.2482 17.646C40.7442 17.646 40.2542 17.5947 39.7782 17.492C39.3115 17.3893 38.8868 17.2213 38.5042 16.988C38.3362 16.8947 38.2335 16.778 38.1962 16.638C38.1588 16.498 38.1728 16.3627 38.2382 16.232C38.3128 16.1013 38.4108 16.0033 38.5322 15.938C38.6628 15.882 38.8028 15.896 38.9522 15.98C39.3628 16.204 39.7502 16.3533 40.1142 16.428C40.4875 16.512 40.8328 16.554 41.1502 16.554C42.4568 16.554 43.1102 15.9007 43.1102 14.594V13.516C42.9142 13.9267 42.6062 14.2487 42.1862 14.482C41.7755 14.7153 41.3135 14.832 40.8002 14.832C40.1842 14.832 39.6475 14.692 39.1902 14.412C38.7328 14.1227 38.3782 13.726 38.1262 13.222C37.8742 12.7087 37.7482 12.1113 37.7482 11.43C37.7482 10.758 37.8742 10.17 38.1262 9.666C38.3782 9.15267 38.7328 8.756 39.1902 8.476C39.6475 8.18667 40.1842 8.042 40.8002 8.042C41.3135 8.042 41.7708 8.15867 42.1722 8.392C42.5828 8.616 42.8862 8.924 43.0822 9.316V8.784C43.0822 8.308 43.3155 8.07 43.7822 8.07C44.2488 8.07 44.4822 8.308 44.4822 8.784V14.426C44.4822 15.4993 44.2068 16.302 43.6562 16.834C43.1055 17.3753 42.3028 17.646 41.2482 17.646ZM41.1362 13.726C41.7335 13.726 42.2095 13.5207 42.5642 13.11C42.9188 12.6993 43.0962 12.1393 43.0962 11.43C43.0962 10.7207 42.9188 10.1653 42.5642 9.764C42.2095 9.35333 41.7335 9.148 41.1362 9.148C40.5388 9.148 40.0628 9.35333 39.7082 9.764C39.3535 10.1653 39.1762 10.7207 39.1762 11.43C39.1762 12.1393 39.3535 12.6993 39.7082 13.11C40.0628 13.5207 40.5388 13.726 41.1362 13.726ZM48.6507 15.126C48.1747 15.126 47.75 15.0327 47.3767 14.846C47.0033 14.6593 46.7047 14.4073 46.4807 14.09C46.266 13.7727 46.1587 13.4133 46.1587 13.012C46.1587 12.508 46.2847 12.1113 46.5367 11.822C46.798 11.5327 47.2227 11.3227 47.8107 11.192C48.408 11.0613 49.2107 10.996 50.2187 10.996H50.6947V10.632C50.6947 10.1 50.5827 9.71733 50.3587 9.484C50.1347 9.25067 49.766 9.134 49.2527 9.134C48.954 9.134 48.6413 9.17133 48.3147 9.246C47.9973 9.32067 47.666 9.44667 47.3207 9.624C47.1247 9.71733 46.9613 9.73133 46.8307 9.666C46.7093 9.60067 46.6253 9.498 46.5787 9.358C46.532 9.218 46.5367 9.07333 46.5927 8.924C46.6487 8.77467 46.7653 8.66267 46.9427 8.588C47.3533 8.40133 47.7593 8.266 48.1607 8.182C48.562 8.08867 48.94 8.042 49.2947 8.042C50.228 8.042 50.9187 8.266 51.3667 8.714C51.8147 9.15267 52.0387 9.84333 52.0387 10.786V14.384C52.0387 14.86 51.8193 15.098 51.3807 15.098C50.9327 15.098 50.7087 14.86 50.7087 14.384V13.866C50.5407 14.258 50.2793 14.566 49.9247 14.79C49.57 15.014 49.1453 15.126 48.6507 15.126ZM48.9307 14.118C49.4347 14.118 49.8547 13.9407 50.1907 13.586C50.5267 13.2313 50.6947 12.7833 50.6947 12.242V11.864H50.2327C49.5513 11.864 49.0147 11.8967 48.6227 11.962C48.24 12.0273 47.9647 12.1393 47.7967 12.298C47.638 12.4473 47.5587 12.6573 47.5587 12.928C47.5587 13.2827 47.68 13.572 47.9227 13.796C48.1653 14.0107 48.5013 14.118 48.9307 14.118ZM54.7142 15.098C54.2475 15.098 54.0142 14.86 54.0142 14.384V8.784C54.0142 8.308 54.2429 8.07 54.7002 8.07C55.1575 8.07 55.3862 8.308 55.3862 8.784V9.274C55.5915 8.882 55.8762 8.57867 56.2402 8.364C56.6042 8.14933 57.0289 8.042 57.5142 8.042C58.5595 8.042 59.2362 8.49933 59.5442 9.414C59.7589 8.98467 60.0669 8.64867 60.4682 8.406C60.8695 8.16333 61.3269 8.042 61.8402 8.042C63.3709 8.042 64.1362 8.95667 64.1362 10.786V14.384C64.1362 14.86 63.8982 15.098 63.4222 15.098C62.9555 15.098 62.7222 14.86 62.7222 14.384V10.856C62.7222 10.2773 62.6195 9.85267 62.4142 9.582C62.2182 9.31133 61.8915 9.176 61.4342 9.176C60.9209 9.176 60.5149 9.358 60.2162 9.722C59.9175 10.0767 59.7682 10.562 59.7682 11.178V14.384C59.7682 14.86 59.5349 15.098 59.0682 15.098C58.5922 15.098 58.3542 14.86 58.3542 14.384V10.856C58.3542 10.2773 58.2562 9.85267 58.0602 9.582C57.8642 9.31133 57.5375 9.176 57.0802 9.176C56.5669 9.176 56.1609 9.358 55.8622 9.722C55.5729 10.0767 55.4282 10.562 55.4282 11.178V14.384C55.4282 14.86 55.1902 15.098 54.7142 15.098ZM69.3191 15.126C68.1991 15.126 67.3171 14.8133 66.6731 14.188C66.0291 13.5533 65.7071 12.69 65.7071 11.598C65.7071 10.898 65.8471 10.282 66.1271 9.75C66.4165 9.20867 66.8131 8.78867 67.3171 8.49C67.8211 8.19133 68.3998 8.042 69.0531 8.042C69.9958 8.042 70.7378 8.34533 71.2791 8.952C71.8205 9.54933 72.0911 10.3753 72.0911 11.43C72.0911 11.7473 71.9045 11.906 71.5311 11.906H67.0791C67.1818 13.3247 67.9331 14.034 69.3331 14.034C69.6131 14.034 69.9071 14.0013 70.2151 13.936C70.5231 13.8613 70.8218 13.7307 71.1111 13.544C71.3071 13.432 71.4751 13.3947 71.6151 13.432C71.7645 13.46 71.8718 13.5393 71.9371 13.67C72.0025 13.7913 72.0118 13.9313 71.9651 14.09C71.9278 14.2393 71.8205 14.37 71.6431 14.482C71.3258 14.6967 70.9525 14.86 70.5231 14.972C70.1031 15.0747 69.7018 15.126 69.3191 15.126ZM69.1091 9.036C68.5211 9.036 68.0545 9.218 67.7091 9.582C67.3638 9.946 67.1538 10.4313 67.0791 11.038H70.9011C70.8731 10.4033 70.7051 9.91333 70.3971 9.568C70.0891 9.21333 69.6598 9.036 69.1091 9.036ZM74.3327 15.098C73.866 15.098 73.6327 14.86 73.6327 14.384V8.784C73.6327 8.308 73.8613 8.07 74.3187 8.07C74.776 8.07 75.0047 8.308 75.0047 8.784V9.302C75.238 8.89133 75.5553 8.57867 75.9567 8.364C76.3673 8.14933 76.8247 8.042 77.3287 8.042C78.9433 8.042 79.7507 8.95667 79.7507 10.786V14.384C79.7507 14.86 79.5173 15.098 79.0507 15.098C78.5747 15.098 78.3367 14.86 78.3367 14.384V10.87C78.3367 10.282 78.22 9.85267 77.9867 9.582C77.7627 9.31133 77.408 9.176 76.9227 9.176C76.3533 9.176 75.896 9.358 75.5507 9.722C75.2147 10.0767 75.0467 10.548 75.0467 11.136V14.384C75.0467 14.86 74.8087 15.098 74.3327 15.098ZM84.6111 15.126C83.7524 15.126 83.1131 14.9067 82.6931 14.468C82.2731 14.0293 82.0631 13.3947 82.0631 12.564V9.26H81.2231C80.8311 9.26 80.6351 9.078 80.6351 8.714C80.6351 8.35 80.8311 8.168 81.2231 8.168H82.0631V6.726C82.0631 6.25 82.3011 6.012 82.7771 6.012C83.2437 6.012 83.4771 6.25 83.4771 6.726V8.168H85.1151C85.5071 8.168 85.7031 8.35 85.7031 8.714C85.7031 9.078 85.5071 9.26 85.1151 9.26H83.4771V12.452C83.4771 12.9467 83.5797 13.32 83.7851 13.572C83.9997 13.824 84.3451 13.95 84.8211 13.95C84.9891 13.95 85.1337 13.936 85.2551 13.908C85.3764 13.8707 85.4837 13.8473 85.5771 13.838C85.6797 13.838 85.7637 13.8753 85.8291 13.95C85.8944 14.0153 85.9271 14.146 85.9271 14.342C85.9271 14.4913 85.8991 14.6267 85.8431 14.748C85.7964 14.86 85.7077 14.9347 85.5771 14.972C85.4651 15.0187 85.3111 15.056 85.1151 15.084C84.9284 15.112 84.7604 15.126 84.6111 15.126ZM89.712 15.126C89.0213 15.126 88.424 14.9813 87.92 14.692C87.416 14.4027 87.024 13.9967 86.744 13.474C86.4733 12.942 86.338 12.312 86.338 11.584C86.338 10.856 86.4733 10.2307 86.744 9.708C87.024 9.176 87.416 8.76533 87.92 8.476C88.424 8.18667 89.0213 8.042 89.712 8.042C90.384 8.042 90.972 8.18667 91.476 8.476C91.98 8.76533 92.372 9.176 92.652 9.708C92.932 10.2307 93.072 10.856 93.072 11.584C93.072 12.312 92.932 12.942 92.652 13.474C92.372 13.9967 91.98 14.4027 91.476 14.692C90.972 14.9813 90.384 15.126 89.712 15.126ZM89.712 14.034C90.2907 14.034 90.7573 13.824 91.112 13.404C91.4667 12.984 91.644 12.3773 91.644 11.584C91.644 10.7907 91.4667 10.1887 91.112 9.778C90.7573 9.358 90.2907 9.148 89.712 9.148C89.124 9.148 88.6527 9.358 88.298 9.778C87.9433 10.1887 87.766 10.7907 87.766 11.584C87.766 12.3773 87.9433 12.984 88.298 13.404C88.6527 13.824 89.124 14.034 89.712 14.034ZM99.5274 15C99.1074 15 98.8974 14.7947 98.8974 14.384C98.8974 13.9827 99.1074 13.782 99.5274 13.782H101.235V6.796L99.9194 7.636C99.7421 7.748 99.5741 7.78067 99.4154 7.734C99.2661 7.678 99.1494 7.58 99.0654 7.44C98.9908 7.3 98.9674 7.15067 98.9954 6.992C99.0328 6.824 99.1401 6.684 99.3174 6.572L101.249 5.354C101.408 5.26067 101.557 5.186 101.697 5.13C101.847 5.06467 101.987 5.032 102.117 5.032C102.276 5.032 102.407 5.07867 102.509 5.172C102.621 5.26533 102.677 5.41 102.677 5.606V13.782H104.245C104.675 13.782 104.889 13.9827 104.889 14.384C104.889 14.7947 104.675 15 104.245 15H99.5274ZM109.952 15.126C108.804 15.126 107.927 14.692 107.32 13.824C106.723 12.9467 106.424 11.6913 106.424 10.058C106.424 8.39667 106.723 7.14133 107.32 6.292C107.927 5.43333 108.804 5.004 109.952 5.004C111.109 5.004 111.987 5.43333 112.584 6.292C113.181 7.14133 113.48 8.392 113.48 10.044C113.48 11.6867 113.177 12.9467 112.57 13.824C111.973 14.692 111.1 15.126 109.952 15.126ZM109.952 13.922C110.661 13.922 111.189 13.6093 111.534 12.984C111.879 12.3493 112.052 11.3693 112.052 10.044C112.052 8.70933 111.879 7.73867 111.534 7.132C111.198 6.516 110.671 6.208 109.952 6.208C109.243 6.208 108.715 6.516 108.37 7.132C108.025 7.748 107.852 8.71867 107.852 10.044C107.852 11.3693 108.025 12.3493 108.37 12.984C108.715 13.6093 109.243 13.922 109.952 13.922ZM118.346 15.126C117.198 15.126 116.321 14.692 115.714 13.824C115.117 12.9467 114.818 11.6913 114.818 10.058C114.818 8.39667 115.117 7.14133 115.714 6.292C116.321 5.43333 117.198 5.004 118.346 5.004C119.504 5.004 120.381 5.43333 120.978 6.292C121.576 7.14133 121.874 8.392 121.874 10.044C121.874 11.6867 121.571 12.9467 120.964 13.824C120.367 14.692 119.494 15.126 118.346 15.126ZM118.346 13.922C119.056 13.922 119.583 13.6093 119.928 12.984C120.274 12.3493 120.446 11.3693 120.446 10.044C120.446 8.70933 120.274 7.73867 119.928 7.132C119.592 6.516 119.065 6.208 118.346 6.208C117.637 6.208 117.11 6.516 116.764 7.132C116.419 7.748 116.246 8.71867 116.246 10.044C116.246 11.3693 116.419 12.3493 116.764 12.984C117.11 13.6093 117.637 13.922 118.346 13.922ZM126.923 14.958C126.82 15.1353 126.694 15.238 126.545 15.266C126.405 15.294 126.27 15.2707 126.139 15.196C126.018 15.1307 125.934 15.028 125.887 14.888C125.84 14.7387 125.868 14.5753 125.971 14.398L131.263 5.2C131.366 5.02267 131.487 4.92 131.627 4.892C131.776 4.85467 131.912 4.87333 132.033 4.948C132.164 5.02267 132.252 5.13 132.299 5.27C132.346 5.41 132.318 5.56867 132.215 5.746L126.923 14.958ZM125.677 11.038C124.912 11.038 124.314 10.772 123.885 10.24C123.456 9.69867 123.241 8.95667 123.241 8.014C123.241 7.07133 123.456 6.334 123.885 5.802C124.324 5.27 124.921 5.004 125.677 5.004C126.433 5.004 127.026 5.27 127.455 5.802C127.894 6.334 128.113 7.07133 128.113 8.014C128.113 8.95667 127.898 9.69867 127.469 10.24C127.04 10.772 126.442 11.038 125.677 11.038ZM125.677 10.044C126.069 10.044 126.372 9.876 126.587 9.54C126.811 9.204 126.923 8.69533 126.923 8.014C126.923 7.33267 126.811 6.824 126.587 6.488C126.372 6.152 126.069 5.984 125.677 5.984C125.285 5.984 124.977 6.152 124.753 6.488C124.538 6.824 124.431 7.33267 124.431 8.014C124.431 8.70467 124.538 9.218 124.753 9.554C124.977 9.88067 125.285 10.044 125.677 10.044ZM132.523 15.126C131.767 15.126 131.174 14.86 130.745 14.328C130.316 13.796 130.101 13.054 130.101 12.102C130.101 11.1687 130.316 10.436 130.745 9.904C131.174 9.36267 131.767 9.092 132.523 9.092C133.288 9.092 133.886 9.36267 134.315 9.904C134.744 10.436 134.959 11.1687 134.959 12.102C134.959 13.054 134.744 13.796 134.315 14.328C133.886 14.86 133.288 15.126 132.523 15.126ZM132.523 14.146C132.915 14.146 133.218 13.978 133.433 13.642C133.657 13.306 133.769 12.7927 133.769 12.102C133.769 11.43 133.657 10.926 133.433 10.59C133.218 10.254 132.915 10.086 132.523 10.086C132.131 10.086 131.823 10.254 131.599 10.59C131.384 10.9167 131.277 11.4207 131.277 12.102C131.277 12.7927 131.384 13.306 131.599 13.642C131.823 13.978 132.131 14.146 132.523 14.146ZM142.732 15.126C142.321 15.126 141.896 15.0793 141.458 14.986C141.019 14.8927 140.622 14.734 140.268 14.51C140.109 14.4167 140.011 14.3 139.974 14.16C139.936 14.02 139.946 13.8893 140.002 13.768C140.058 13.6467 140.146 13.5627 140.268 13.516C140.398 13.46 140.543 13.474 140.702 13.558C141.066 13.754 141.416 13.894 141.752 13.978C142.088 14.062 142.419 14.104 142.746 14.104C143.24 14.104 143.614 14.0153 143.866 13.838C144.118 13.6607 144.244 13.4227 144.244 13.124C144.244 12.8813 144.16 12.6947 143.992 12.564C143.824 12.424 143.572 12.3167 143.236 12.242L141.906 11.976C140.73 11.7333 140.142 11.1267 140.142 10.156C140.142 9.512 140.398 8.99867 140.912 8.616C141.425 8.23333 142.097 8.042 142.928 8.042C143.768 8.042 144.491 8.24733 145.098 8.658C145.247 8.75133 145.336 8.868 145.364 9.008C145.392 9.13867 145.373 9.26467 145.308 9.386C145.242 9.498 145.144 9.57733 145.014 9.624C144.892 9.67067 144.748 9.652 144.58 9.568C144.3 9.4 144.02 9.27867 143.74 9.204C143.46 9.12 143.189 9.078 142.928 9.078C142.442 9.078 142.074 9.17133 141.822 9.358C141.57 9.53533 141.444 9.778 141.444 10.086C141.444 10.5527 141.752 10.8513 142.368 10.982L143.698 11.248C144.304 11.3693 144.762 11.5747 145.07 11.864C145.387 12.1533 145.546 12.5453 145.546 13.04C145.546 13.6933 145.289 14.2067 144.776 14.58C144.262 14.944 143.581 15.126 142.732 15.126ZM150.325 15.126C149.205 15.126 148.323 14.8133 147.679 14.188C147.035 13.5533 146.713 12.69 146.713 11.598C146.713 10.898 146.853 10.282 147.133 9.75C147.422 9.20867 147.819 8.78867 148.323 8.49C148.827 8.19133 149.406 8.042 150.059 8.042C151.002 8.042 151.744 8.34533 152.285 8.952C152.826 9.54933 153.097 10.3753 153.097 11.43C153.097 11.7473 152.91 11.906 152.537 11.906H148.085C148.188 13.3247 148.939 14.034 150.339 14.034C150.619 14.034 150.913 14.0013 151.221 13.936C151.529 13.8613 151.828 13.7307 152.117 13.544C152.313 13.432 152.481 13.3947 152.621 13.432C152.77 13.46 152.878 13.5393 152.943 13.67C153.008 13.7913 153.018 13.9313 152.971 14.09C152.934 14.2393 152.826 14.37 152.649 14.482C152.332 14.6967 151.958 14.86 151.529 14.972C151.109 15.0747 150.708 15.126 150.325 15.126ZM150.115 9.036C149.527 9.036 149.06 9.218 148.715 9.582C148.37 9.946 148.16 10.4313 148.085 11.038H151.907C151.879 10.4033 151.711 9.91333 151.403 9.568C151.095 9.21333 150.666 9.036 150.115 9.036ZM157.733 17.646C157.229 17.646 156.739 17.5947 156.263 17.492C155.796 17.3893 155.371 17.2213 154.989 16.988C154.821 16.8947 154.718 16.778 154.681 16.638C154.643 16.498 154.657 16.3627 154.723 16.232C154.797 16.1013 154.895 16.0033 155.017 15.938C155.147 15.882 155.287 15.896 155.437 15.98C155.847 16.204 156.235 16.3533 156.599 16.428C156.972 16.512 157.317 16.554 157.635 16.554C158.941 16.554 159.595 15.9007 159.595 14.594V13.516C159.399 13.9267 159.091 14.2487 158.671 14.482C158.26 14.7153 157.798 14.832 157.285 14.832C156.669 14.832 156.132 14.692 155.675 14.412C155.217 14.1227 154.863 13.726 154.611 13.222C154.359 12.7087 154.233 12.1113 154.233 11.43C154.233 10.758 154.359 10.17 154.611 9.666C154.863 9.15267 155.217 8.756 155.675 8.476C156.132 8.18667 156.669 8.042 157.285 8.042C157.798 8.042 158.255 8.15867 158.657 8.392C159.067 8.616 159.371 8.924 159.567 9.316V8.784C159.567 8.308 159.8 8.07 160.267 8.07C160.733 8.07 160.967 8.308 160.967 8.784V14.426C160.967 15.4993 160.691 16.302 160.141 16.834C159.59 17.3753 158.787 17.646 157.733 17.646ZM157.621 13.726C158.218 13.726 158.694 13.5207 159.049 13.11C159.403 12.6993 159.581 12.1393 159.581 11.43C159.581 10.7207 159.403 10.1653 159.049 9.764C158.694 9.35333 158.218 9.148 157.621 9.148C157.023 9.148 156.547 9.35333 156.193 9.764C155.838 10.1653 155.661 10.7207 155.661 11.43C155.661 12.1393 155.838 12.6993 156.193 13.11C156.547 13.5207 157.023 13.726 157.621 13.726ZM165.387 15.126C163.735 15.126 162.909 14.2067 162.909 12.368V8.784C162.909 8.308 163.142 8.07 163.609 8.07C164.085 8.07 164.323 8.308 164.323 8.784V12.382C164.323 12.9327 164.435 13.3387 164.659 13.6C164.883 13.8613 165.238 13.992 165.723 13.992C166.255 13.992 166.684 13.8147 167.011 13.46C167.347 13.1053 167.515 12.6293 167.515 12.032V8.784C167.515 8.308 167.753 8.07 168.229 8.07C168.696 8.07 168.929 8.308 168.929 8.784V14.384C168.929 14.86 168.7 15.098 168.243 15.098C167.786 15.098 167.557 14.86 167.557 14.384V13.908C167.333 14.3093 167.034 14.6127 166.661 14.818C166.288 15.0233 165.863 15.126 165.387 15.126ZM171.636 15.098C171.16 15.098 170.922 14.86 170.922 14.384V8.784C170.922 8.308 171.15 8.07 171.608 8.07C172.065 8.07 172.294 8.308 172.294 8.784V9.386C172.48 8.966 172.76 8.644 173.134 8.42C173.516 8.196 173.978 8.06533 174.52 8.028C174.865 8 175.052 8.18667 175.08 8.588C175.117 8.99867 174.916 9.22267 174.478 9.26L174.212 9.288C172.97 9.40933 172.35 10.0487 172.35 11.206V14.384C172.35 14.86 172.112 15.098 171.636 15.098ZM179.017 15.126C178.326 15.126 177.729 14.9813 177.225 14.692C176.721 14.4027 176.329 13.9967 176.049 13.474C175.778 12.942 175.643 12.312 175.643 11.584C175.643 10.856 175.778 10.2307 176.049 9.708C176.329 9.176 176.721 8.76533 177.225 8.476C177.729 8.18667 178.326 8.042 179.017 8.042C179.689 8.042 180.277 8.18667 180.781 8.476C181.285 8.76533 181.677 9.176 181.957 9.708C182.237 10.2307 182.377 10.856 182.377 11.584C182.377 12.312 182.237 12.942 181.957 13.474C181.677 13.9967 181.285 14.4027 180.781 14.692C180.277 14.9813 179.689 15.126 179.017 15.126ZM179.017 14.034C179.595 14.034 180.062 13.824 180.417 13.404C180.771 12.984 180.949 12.3773 180.949 11.584C180.949 10.7907 180.771 10.1887 180.417 9.778C180.062 9.358 179.595 9.148 179.017 9.148C178.429 9.148 177.957 9.358 177.603 9.778C177.248 10.1887 177.071 10.7907 177.071 11.584C177.071 12.3773 177.248 12.984 177.603 13.404C177.957 13.824 178.429 14.034 179.017 14.034ZM190.302 15.098C189.91 15.098 189.621 14.888 189.434 14.468L187.096 9.036C186.984 8.784 186.979 8.56 187.082 8.364C187.185 8.168 187.395 8.07 187.712 8.07C187.88 8.07 188.015 8.112 188.118 8.196C188.23 8.28 188.328 8.42467 188.412 8.63L190.33 13.362L192.29 8.63C192.374 8.42467 192.467 8.28 192.57 8.196C192.682 8.112 192.836 8.07 193.032 8.07C193.284 8.07 193.457 8.168 193.55 8.364C193.643 8.56 193.639 8.77933 193.536 9.022L191.17 14.468C190.993 14.888 190.703 15.098 190.302 15.098ZM195.63 6.642C195.35 6.642 195.13 6.572 194.972 6.432C194.822 6.292 194.748 6.096 194.748 5.844C194.748 5.312 195.042 5.046 195.63 5.046C196.218 5.046 196.512 5.312 196.512 5.844C196.512 6.376 196.218 6.642 195.63 6.642ZM195.63 15.084C195.163 15.084 194.93 14.8273 194.93 14.314V8.854C194.93 8.35 195.163 8.098 195.63 8.098C196.106 8.098 196.344 8.35 196.344 8.854V14.314C196.344 14.8273 196.106 15.084 195.63 15.084ZM200.518 15.126C200.042 15.126 199.617 15.0327 199.244 14.846C198.871 14.6593 198.572 14.4073 198.348 14.09C198.133 13.7727 198.026 13.4133 198.026 13.012C198.026 12.508 198.152 12.1113 198.404 11.822C198.665 11.5327 199.09 11.3227 199.678 11.192C200.275 11.0613 201.078 10.996 202.086 10.996H202.562V10.632C202.562 10.1 202.45 9.71733 202.226 9.484C202.002 9.25067 201.633 9.134 201.12 9.134C200.821 9.134 200.509 9.17133 200.182 9.246C199.865 9.32067 199.533 9.44667 199.188 9.624C198.992 9.71733 198.829 9.73133 198.698 9.666C198.577 9.60067 198.493 9.498 198.446 9.358C198.399 9.218 198.404 9.07333 198.46 8.924C198.516 8.77467 198.633 8.66267 198.81 8.588C199.221 8.40133 199.627 8.266 200.028 8.182C200.429 8.08867 200.807 8.042 201.162 8.042C202.095 8.042 202.786 8.266 203.234 8.714C203.682 9.15267 203.906 9.84333 203.906 10.786V14.384C203.906 14.86 203.687 15.098 203.248 15.098C202.8 15.098 202.576 14.86 202.576 14.384V13.866C202.408 14.258 202.147 14.566 201.792 14.79C201.437 15.014 201.013 15.126 200.518 15.126ZM200.798 14.118C201.302 14.118 201.722 13.9407 202.058 13.586C202.394 13.2313 202.562 12.7833 202.562 12.242V11.864H202.1C201.419 11.864 200.882 11.8967 200.49 11.962C200.107 12.0273 199.832 12.1393 199.664 12.298C199.505 12.4473 199.426 12.6573 199.426 12.928C199.426 13.2827 199.547 13.572 199.79 13.796C200.033 14.0107 200.369 14.118 200.798 14.118ZM206.539 9.89C206.259 9.89 206.035 9.806 205.867 9.638C205.709 9.47 205.629 9.26 205.629 9.008C205.629 8.73733 205.709 8.52267 205.867 8.364C206.035 8.196 206.259 8.112 206.539 8.112C206.81 8.112 207.025 8.196 207.183 8.364C207.342 8.52267 207.421 8.73733 207.421 9.008C207.421 9.26 207.342 9.47 207.183 9.638C207.025 9.806 206.81 9.89 206.539 9.89ZM206.539 15.056C206.259 15.056 206.035 14.972 205.867 14.804C205.709 14.636 205.629 14.4213 205.629 14.16C205.629 13.8987 205.709 13.6887 205.867 13.53C206.035 13.362 206.259 13.278 206.539 13.278C206.81 13.278 207.025 13.362 207.183 13.53C207.342 13.6887 207.421 13.8987 207.421 14.16C207.421 14.4213 207.342 14.636 207.183 14.804C207.025 14.972 206.81 15.056 206.539 15.056Z" fill="#B2B2B2"/>
<path d="M4.91898 3.23263C3.83902 3.53027 2.76639 3.85391 1.70203 4.20327C1.60484 4.23475 1.51845 4.2929 1.45269 4.37109C1.38693 4.44927 1.34446 4.54436 1.3301 4.6455C0.701907 9.35924 2.15333 12.7984 3.88484 15.064C4.61794 16.0328 5.49207 16.8863 6.47813 17.5961C6.87047 17.8728 7.21745 18.0723 7.49073 18.2005C7.6268 18.2651 7.73792 18.3082 7.82297 18.3343C7.86016 18.3473 7.89851 18.3568 7.93749 18.3626C7.97602 18.3564 8.01395 18.3469 8.05089 18.3343C8.13706 18.3082 8.24819 18.2651 8.38426 18.2005C8.6564 18.0723 9.00452 17.8716 9.39686 17.5961C10.3829 16.8863 11.257 16.0328 11.9901 15.064C13.7217 12.7996 15.1731 9.35924 14.5449 4.6455C14.5307 4.54431 14.4882 4.44916 14.4225 4.37096C14.3567 4.29275 14.2702 4.23464 14.173 4.20327C13.4348 3.96175 12.1886 3.56827 10.956 3.23376C9.69735 2.89245 8.53961 2.63959 7.93749 2.63959C7.33651 2.63959 6.17764 2.89245 4.91898 3.23376V3.23263ZM4.61736 2.06469C5.84767 1.73018 7.15508 1.42969 7.93749 1.42969C8.7199 1.42969 10.0273 1.73018 11.2576 2.06469C12.5163 2.40486 13.7852 2.80741 14.5313 3.0512C14.8432 3.15422 15.1198 3.34315 15.3292 3.59628C15.5386 3.84942 15.6724 4.15649 15.7151 4.48222C16.3909 9.55881 14.8227 13.3212 12.92 15.8101C12.1131 16.8749 11.151 17.8125 10.0659 18.5917C9.69065 18.8613 9.29308 19.0984 8.87752 19.3004C8.56002 19.4501 8.21871 19.5725 7.93749 19.5725C7.65628 19.5725 7.3161 19.4501 6.99747 19.3004C6.5819 19.0984 6.18434 18.8613 5.80911 18.5917C4.72398 17.8125 3.7619 16.8749 2.95502 15.8101C1.05229 13.3212 -0.515931 9.55881 0.15989 4.48222C0.202624 4.15649 0.336378 3.84942 0.545784 3.59628C0.755191 3.34315 1.03176 3.15422 1.34371 3.0512C2.42683 2.69607 3.51836 2.36713 4.61736 2.06469Z" fill="#B2B2B2"/>
<path d="M11.1733 7.26422C11.2261 7.31689 11.268 7.37945 11.2966 7.44833C11.3252 7.51721 11.3399 7.59106 11.3399 7.66563C11.3399 7.74021 11.3252 7.81405 11.2966 7.88293C11.268 7.95181 11.2261 8.01438 11.1733 8.06704L7.77154 11.4688C7.71888 11.5216 7.65631 11.5635 7.58743 11.5921C7.51855 11.6207 7.44471 11.6354 7.37013 11.6354C7.29556 11.6354 7.22171 11.6207 7.15283 11.5921C7.08395 11.5635 7.02139 11.5216 6.96872 11.4688L5.26783 9.76793C5.21512 9.71522 5.1733 9.65264 5.14477 9.58376C5.11625 9.51489 5.10156 9.44107 5.10156 9.36652C5.10156 9.29197 5.11625 9.21816 5.14477 9.14928C5.1733 9.08041 5.21512 9.01783 5.26783 8.96511C5.32055 8.9124 5.38313 8.87058 5.452 8.84206C5.52087 8.81353 5.59469 8.79884 5.66924 8.79884C5.74379 8.79884 5.81761 8.81353 5.88648 8.84206C5.95536 8.87058 6.01794 8.9124 6.07065 8.96511L7.37013 10.2657L10.3705 7.26422C10.4232 7.21142 10.4857 7.16953 10.5546 7.14095C10.6235 7.11237 10.6973 7.09766 10.7719 7.09766C10.8465 7.09766 10.9203 7.11237 10.9892 7.14095C11.0581 7.16953 11.1207 7.21142 11.1733 7.26422Z" fill="#B2B2B2"/>
</svg>
